<svg width="97" height="42" viewBox="0 0 97 42" fill="none" xmlns="http://www.w3.org/2000/svg">
<path d="M28.4301 15.487C28.4301 17.6249 30.9378 19.7796 33.3773 20.3603C30.9463 20.9495 28.4386 23.1042 28.4301 25.2337V30.8393H36.593V0H28.4301V15.487Z" fill="#E00097"/>
<path d="M18.518 12.2886C16.778 10.3864 14.3214 9.21643 11.3019 9.21643C5.05813 9.21643 0 14.2076 0 20.3687C0 26.5299 5.05813 31.5211 11.3019 31.5211C14.3214 31.5211 16.778 30.3511 18.518 28.4489V29.7535C18.518 32.3122 15.7373 34.3828 12.2999 34.3828C10.611 34.3828 9.07563 33.8778 7.95824 33.0613L2.39685 38.5491C4.9643 40.6786 8.58091 42 12.5899 42C20.369 42 26.681 37.0088 26.681 30.8477V25.2421C26.681 23.1042 24.1733 20.9495 21.7337 20.3687C24.1647 19.7796 26.6725 17.6249 26.681 15.4954V9.88978H18.518V12.2886ZM12.8458 23.6429C11.0119 23.6429 9.52771 22.1784 9.52771 20.3687C9.52771 18.5591 11.0119 17.0946 12.8458 17.0946C14.6797 17.0946 16.1638 18.5591 16.1638 20.3687C16.1638 22.1699 14.6797 23.6429 12.8458 23.6429Z" fill="#E00097"/>
<path d="M56.3304 12.2886C54.5904 10.3864 52.1338 9.21643 49.1143 9.21643C42.8705 9.21643 37.8124 14.2076 37.8124 20.3687C37.8124 26.5299 42.8705 31.521 49.1143 31.521C52.1338 31.521 54.5904 30.3511 56.3304 28.4489V30.8561H64.4934V24.9222C64.4934 22.9359 62.1562 20.9242 59.8873 20.3772C62.1562 19.8301 64.4934 17.8184 64.4934 15.8321V9.89819H56.3304V12.2886ZM50.6582 23.6429C48.8243 23.6429 47.3401 22.1784 47.3401 20.3687C47.3401 18.5591 48.8243 17.0946 50.6582 17.0946C52.492 17.0946 53.9762 18.5591 53.9762 20.3687C53.9762 22.1699 52.492 23.6429 50.6582 23.6429Z" fill="#E00097"/>
<path d="M90.7136 8.91345C88.2656 8.91345 86.3293 10.2854 85.3996 12.2802C84.359 10.2854 82.2521 8.91345 79.8041 8.91345C77.2878 8.91345 75.3175 10.3611 74.4133 12.4485V9.88139H66.2504V15.8237C66.2504 17.8101 68.5875 19.8217 70.8564 20.3688C68.5875 20.9159 66.2504 22.9275 66.2504 24.9139V30.8477H71.5985H74.3963H74.4133V18.9547V18.8201V18.677C74.4816 17.8858 75.1469 17.2714 75.9657 17.2714C76.8272 17.2714 77.5352 17.9616 77.5352 18.8201V30.8477H85.6981V18.8201C85.6981 17.97 86.3976 17.2714 87.2676 17.2714C88.1291 17.2714 88.8371 17.9616 88.8371 18.8201V30.8477H97V15.0577C96.9915 11.6658 94.1767 8.91345 90.7136 8.91345Z" fill="#E00097"/>
</svg>
